<svg xmlns="http://www.w3.org/2000/svg" xmlns:xlink="http://www.w3.org/1999/xlink" viewBox="10 10 40 40" fill="#fff"
  fill-rule="evenodd" stroke="#000" stroke-linecap="round" stroke-linejoin="round">
  <use xlink:href="#Q" x="3.125" y="3.125" />
  <defs>
    <linearGradient id="A" x1="91.90%" y1="40.22%" x2="28.49%" y2="81.63%">
      <stop offset="18%" stop-color="#0052cc" />
      <stop offset="100%" stop-color="#2684ff" />
    </linearGradient>
  </defs>
  <symbol id="Q" overflow="visible">
    <g stroke="none" fill-rule="nonzero">
      <path
        d="M40.995 21.11a.918.918 0 0 1-.807 1.012l-5.334.57a1.613 1.613 0 0 0-1.441 1.63c.016.961.324 1.894.883 2.675l5.083 7.107a.93.93 0 0 1-.2 1.287l-1.223.903a.898.898 0 0 1-1.267-.204l-3.3-4.613a1.369 1.369 0 0 0-1.826-.372 4.044 4.044 0 0 0-1.597 1.828l-3.735 8.52a.902.902 0 0 1-1.175.477l-.022-.01-1.381-.624a.927.927 0 0 1-.47-1.195l.01-.022 2.25-5.136a1.534 1.534 0 0 0-.651-1.952 4.339 4.339 0 0 0-2.59-.534l-9.042.966a.91.91 0 0 1-.997-.82l-.158-1.527a.918.918 0 0 1 .807-1.013l5.65-.603c.729-.078 1.278-.7 1.266-1.433a4.161 4.161 0 0 0-.776-2.35l-5.58-7.802a.93.93 0 0 1 .2-1.287l1.223-.902a.898.898 0 0 1 1.267.204l3.283 4.59a1.65 1.65 0 0 0 2.2.448 4.872 4.872 0 0 0 1.924-2.203l3.585-8.178a.902.902 0 0 1 1.175-.477l.022.01 1.381.624c.45.204.657.735.47 1.195l-.01.022-2.26 5.156a1.607 1.607 0 0 0 .684 2.045c.824.464 1.772.66 2.713.56l8.611-.92a.91.91 0 0 1 .997.82zM27 29a3 3 0 1 0 0-6 3 3 0 0 0 0 6zm0-1a2 2 0 1 0 0-4 2 2 0 0 0 0 4z"
        fill="#fff" />
    </g>
  </symbol>
</svg>