<svg xmlns="http://www.w3.org/2000/svg" xmlns:xlink="http://www.w3.org/1999/xlink" viewBox="0 0 65 60" fill="#fff"
  fill-rule="evenodd" stroke="#000" stroke-linecap="round" stroke-linejoin="round">
  <use xlink:href="#N" x=".5" y=".5" />
  <symbol id="N" overflow="visible">
    <g stroke="none">
      <path d="M32 58.964l11.784-36.277H20.216z" fill="#e24329" />
      <path d="M32 58.964L20.216 22.687H3.7z" fill="#fc6d26" />
      <path d="M3.7 22.687L.12 33.717a2.44 2.44 0 0 0 .886 2.728L32 58.964z" fill="#fca326" />
      <path d="M3.7 22.687h16.515L13.118.853c-.365-1.124-1.955-1.124-2.32 0z" fill="#e24329" />
      <path d="M32 58.964l11.784-36.277H60.3z" fill="#fc6d26" />
      <path d="M60.3 22.687l3.58 11.02a2.44 2.44 0 0 1-.886 2.728L32 58.964z" fill="#fca326" />
      <path d="M60.3 22.687H43.784L50.882.843c.365-1.124 1.955-1.124 2.32 0z" fill="#e24329" />
    </g>
  </symbol>
</svg>