<svg height="405" viewBox="0 0 205 205" width="405" xmlns="http://www.w3.org/2000/svg"
    xmlns:xlink="http://www.w3.org/1999/xlink" fill="#fff" fill-rule="evenodd" stroke="#000" stroke-linecap="round"
    stroke-linejoin="round">
    <use xlink:href="#O" x="3.125" y="3.125" />
    <defs>
        <linearGradient id="A" x1="91.90%" y1="40.22%" x2="28.49%" y2="81.63%">
            <stop offset="18%" stop-color="#0052cc" />
            <stop offset="100%" stop-color="#2684ff" />
        </linearGradient>
    </defs>
    <symbol id="O" overflow="visible">
        <g stroke="none" fill-rule="nonzero">
            <path
                d="m163.265 78.5313c5.47854-2.75033 9.20763-7.85081 9.20763-14.1302 0-14.6351-13.2191-17.784-25.2672-17.5778h-32.5121-.18569-18.0255v46.7294c0 6.78578-2.35869 9.13595-6.5589 9.13595-4.51327 0-7.05151-2.54563-7.05151-7.16901v-6.47181h-17.1415v3.03044c0 15.6278 5.97268 26.3166 24.48 26.3166 15.0959 0 23.0774-6.70421 24.2974-19.9433v18.475h33.5756c14.9793 0 27.2193-5.10204 27.2193-21.7948 0-7.94932-4.59-14.4304-12.0374-16.6005zm-30.5417-17.5762h14.0892c3.82578 0 7.44592 1.68068 7.44592 6.77963 0 5.00661-4.30612 6.67651-7.44592 6.67651h-14.0892v-13.4561zm14.5818 41.3457h-14.5818v-16.1126h14.5818c5.48775 0 9.79691 2.07005 9.79691 8.24175 0 5.8023-4.01606 7.87082-9.79691 7.87082z"
                fill="#c00" />
            <path
                d="m138.217 166.834c0-11.8432-9.5836-21.4655-21.3985-21.4655-11.8379 0-21.4154 9.6223-21.4154 21.4655 0 11.8647 9.57746 21.467 21.4154 21.467 11.8149 0 21.3985-9.60229 21.3985-21.467z"
                fill="#c00" />
            <path
                d="m81.3524 160.062c0-10.4934-8.49098-19.006-18.9631-19.006-10.4706 0-18.9554 8.51109-18.9554 19.006 0 10.5026 8.4833 19.0184 18.9554 19.0184s18.9631-8.51571 18.9631-19.0184z"
                fill="#c00" />
            <path
                d="m38.514 125.712c0-9.47608-7.64846-17.1622-17.1108-17.1622-9.46543 0-17.1262 7.68615-17.1262 17.1622 0 9.50223 7.66075 17.1884 17.1262 17.1884 9.46084 0 17.1108-7.68615 17.1108-17.1884z"
                fill="#c00" />
            <path
                d="m30.5662 77.9003c0-8.47415-6.83666-15.323-15.277-15.323-8.43879 0-15.2893 6.84735-15.2893 15.323 0 8.46491 6.85047 15.3353 15.2893 15.3353 8.44033 0 15.277-6.87197 15.277-15.3353z"
                fill="#c00" />
            <path
                d="m51.9924 34.9662c0-7.10899-5.76398-12.8759-12.8477-12.8759-7.08834 0-12.8431 5.76691-12.8431 12.8759 0 7.11514 5.75476 12.8774 12.8431 12.8774 7.08373 0 12.8477-5.7623 12.8477-12.8774z"
                fill="#c00" />
            <path
                d="m88.6694 15.951c0-6.43334-5.19464-11.6523-11.6108-11.6523-6.41465 0-11.6185 5.219-11.6185 11.6523 0 6.4441 5.20537 11.6631 11.6185 11.6631 6.41772 0 11.6108-5.219 11.6108-11.6631z"
                fill="#c00" />
            <path
                d="m127.205 9.81468c0-5.42062-4.37209-9.81468-9.78157-9.81468-5.39567 0-9.78617 4.39406-9.78617 9.81468 0 5.42678 4.3905 9.8193 9.78617 9.8193 5.40948 0 9.78157-4.39252 9.78157-9.8193z"
                fill="#c00" />
        </g>
        <symbol>
</svg>