<svg xmlns="http://www.w3.org/2000/svg" xmlns:xlink="http://www.w3.org/1999/xlink" viewBox="0 0 49 66" fill="#2684ff"
  fill-rule="evenodd" stroke="#000" stroke-linecap="round" stroke-linejoin="round">
  <use xlink:href="#K" x="3.125" y="3.125" />
  <defs>
    <linearGradient id="L" x1="91.90%" y1="40.22%" x2="28.49%" y2="81.63%">
      <stop offset="18%" stop-color="#0052cc" />
      <stop offset="100%" stop-color="#ffffff" />
    </linearGradient>
  </defs>
  <symbol id="K" overflow="visible">
    <g stroke="none" fill-rule="nonzero">
      <path d="M35.926 12.12s-1.41.3-1.54 1.54 1.54.256 1.796.172m-10.584-1.626s-1.88.256-1.88 1.454 2.14 1.112 2.736.6"
        fill="#fff" />
      <path
        d="M24.468 8.932c-2.33-.54-3.488.976-4.196 2.55-.63-.152-.4-1.01-.2-1.448.4-1.148 2.1-2.674 3.472-2.468.592.09 1.392.63.944 1.366m11.336 2.634l.11.004c.526 1.094 1 2.254 1.646 3.2-.446 1.036-3.37 1.954-3.326.092.632-.276 1.724-.056 2.286-.41-.324-.89-.792-1.648-.72-2.906m-10.16.068c.5.916.66 1.88 1.372 2.57.32.312.94.692.634 1.56a2 2 0 0 1-.9.75c-1.11.328-3.7.068-2.8-1.316.92.04 2.152.596 2.84-.07-.528-.84-1.466-2.51-1.12-3.492m9.74 9.31c-1.672 1.074-3.536 2.24-6.276 1.972-.586-.508-.808-1.64-.24-2.39.296.508.11 1.446.936 1.586 1.554.266 3.364-.95 4.48-1.376.694-1.17-.06-1.6-.684-2.352-1.28-1.54-2.994-3.452-2.932-5.76.516-.374.56.572.636.744.668 1.56 2.348 3.56 3.574 4.9.3.33.8.646.852.864.16.634-.414 1.392-.348 1.814m-22.06-1.134c-.524-.3-.648-1.616-1.264-1.654-.88-.054-.72 1.71-.716 2.74-.606-.55-.712-2.24-.268-3.11-.506-.248-.734.274-1.014.46.36-2.624 3.84-1.2 3.26 1.566m23.11 2.2c-.8 1.48-1.88 3.112-4.164 3.16-.046-.48-.08-1.206.002-1.494 1.746-.168 2.824-1.056 4.16-1.666m-10.94.96c1.456.766 4.134.848 6.114.79.106.434.104.97.108 1.5-2.546.126-5.554-.5-6.2-2.29m-.28 1.428c1.008 2.53 4.47 2.24 7.39 2.168-.128.328-.408.716-.754.856-.936.4-3.516.67-4.814-.02-.824-.44-1.352-1.428-1.804-2.008-.2-.28-1.304-.996-.016-1"
        fill="#fff" />
      <path
        d="M31.558 54.598c-.056 1.35.132 3.52.196 4.934.9.002 1.284-.196 1.954-.4.076-1.668-.528-3.21-.7-4.732-.354-.094-1.006.25-1.448.2zm-13.984-7.68c.592 5.444 1.45 10 3.024 14.84 3.492 1.06 7.7 1.152 10.788.196-.566-2.72-.32-6.034-.65-8.94l-.464-6.606c-3.74-.8-9.026-.2-12.696.504zm13.6-.47c-.032 2.34.104 4.644.284 6.986l2.34-.408c-.27-2.254-.24-4.79-.79-6.784-.64.006-1.2-.008-1.836.206zm4.554-.376c-.426-.1-.92-.004-1.33.004l.8 6.01c.64.02 1-.28 1.51-.384.028-1.756-.154-4.176-1-5.63zm6.896 6.3c1.336-.324 2.174-1.96 1.8-3.64-.25-1.128-.696-3.254-1.174-3.976-.352-.534-1.31-1.234-2.074-.744-1.244.796-3.434 1.028-4.34 1.99.454 1.514.596 3.592.784 5.51 1.554.096 3.464-.428 4.756.128-.9.292-2.072.294-2.85.72.636.308 2.128.246 3.1.01zm-12.416-8.12c-.94-2.206-1.79-4.492-3.19-6.268-1.356.91-2.85 1.766-3.232 3.4 1.94 1.1 4.206 2.2 6.4 2.85zm2.312-6.83c-.088 2.206-.34 5.1-.928 6.828 1.4-1.786 2.534-3.866 3.716-5.89-.504-.808-1.56-1.514-2.788-.94zm-2.6-.932c-.532-.06-1 .61-1.674.32l-.464.536c1.526 1.84 2.2 4.448 3.4 6.608.632-2.076.56-4.35.7-6.616-.868.056-1.35-.786-1.96-.85zm-1.686-2.224c-.056.63.09.836.216 1.56 2.07.648 1.708-2.84-.216-1.56zm-2.296-.754a12.76 12.76 0 0 0-3.384-1.238c-1.428-.274-1.294 1.948-1.234 3.274.048 1.05.594 2.16.83 2.856.112.326.136.67.414.736.492.114 2.114-.534 2.576-.786 1-.534 1.736-1.4 2.566-1.948l.032-.83c-.5-.248-1.076-.426-1.81-.46.5-.25 1.228-.246 1.68-.544l.012-.332c-.828-.064-1.14-.432-1.688-.73zm-8.54-1.546c-.74.752 2.076 1.776 2.974 1.832-.006-.476.272-.924.216-1.266-1.066-.188-2.466-.064-3.188-.566zm9.12.352c-.004.074-.1.046-.114.106.952.744 1.66.9 2.956.834l1.712-1.32c-1.4.126-3.166.996-4.554.4zm8.372 2.54c-.04-.836-.26-2.552-.776-2.852-1.084-.632-3.01 1.276-3.824 1.568.088.256.236.46.246.784a2.31 2.31 0 0 1 1.488.168c-.484.054-1 .05-1.34.28-.12.34.028.8-.05 1.272 1.148.324 2.46.496 3.91.54.28-.366.4-1.066.346-1.76zm-18.74-2.164c-.232-.166-1.806-2.212-2-2.128-2.846 1.12-5.506 3.06-7.884 4.9 2.268 4.864 3.2 10.826 3.344 16.57 2.6 1.214 4.88 2.966 8.4 3.148l-1.012-8.178c-.886-.374-2.156.016-2.984-.116-.008-1 1.266-.44 1.372-1.108.08-.508-.7-.546-.446-1.346.648.236.988.756 1.68.95.632-1.4-.008-3.824.08-5 .02-.216.108-1.2.594-1.028.43.152-.024 2.6.02 3.71.04 1.006-.12 2 .286 2.612 3.406-.464 6.866-.764 10.55-.864-.81-.348-1.774-.68-2.83-1.272-.572-.32-2.376-.994-2.54-1.54-.264-.866.692-1.328.854-2.07-1.72.94-2.054-.9-2.46-2.2-.368-1.2-.6-2.06-.668-2.74-1.48-.706-3.064-1.4-4.34-2.326zm17.234-1.88c2.372-1.15 2.8 4.3 1.87 6.052.144.524.64.724.84 1.194l-4.14 6.926c1.004-.626 2.44-.112 3.6-.6.432-.17.744-1.16 1.072-1.95.9-2.176 1.844-4.92 2.264-7 .094-.474.354-1.504.296-1.926-.104-.754-1.126-1.314-1.648-1.8l-2.54-2.424c-.406.6-1.276 1-1.608 1.488zM10.708 9.782c-1.13 1.244-.894 3.572-.756 5.23 2.04-1.284 4.752.1 4.728 2.286.976-.026.364-1.2.188-1.986-.576-2.508.972-5.232.07-7.526-1.75.132-3.186.848-4.228 1.996zm8.084-7.216c-2.56.724-5.836 2.584-6.886 4.88.814-.12 1.4-.528 2.2-.6.304-.02.7.128 1.05.04.694-.172 1.28-1.73 1.806-2.31.512-.566 1.126-.808 1.546-1.324.27-.13.67-.12.684-.526-.12-.126-.24-.2-.4-.2zm13.314.68c-2.654-1.494-7.148-2.6-9.972-1.214-2.28 1.136-5.36 3.016-6.41 5.4 1 2.3-.29 4.406-.372 6.74-.044 1.24.584 2.326.632 3.68-.336.554-1.36.6-2.072.584-.24-1.196-.66-2.54-1.888-2.676-1.74-.19-3.016 1.252-3.096 2.76-.094 1.772 1.36 4.71 3.424 4.506.796-.08.992-.88 1.86-.87.47.94-.726 1.234-.848 1.904-.032.174.1.852.176 1.17.374 1.548 1.21 3.55 2.032 4.728 1.044 1.494 3.092 1.72 5.3 1.866.394-.848 1.844-.8 2.79-.556-1.132-.448-2.186-1.536-3.06-2.5-1-1.104-2-2.29-2.07-3.734 1.894 2.628 3.46 4.924 6.904 6.08 2.606.874 5.652-.4 7.654-1.808.832-.584 1.328-1.512 1.92-2.36 2.21-3.2 3.24-7.72 3.016-12.12-.094-1.814-.09-3.6-.7-4.84-.636-1.276-2.788-2.4-4.048-1.264-.234-1.24 1.048-2.008 2.552-1.56-1.072-1.384-2.2-3.048-3.724-3.908zm4.946 40.934c2.074-1.032 5.95-2.776 7.252.004.539 1.232.971 2.508 1.292 3.814.352 1.492-.4 4.628-1.914 5.13-1.354.44-2.936.416-4.568.088a2.53 2.53 0 0 1-.556-.728c-1.166-.046-2.256.06-3.176.54.088.86-.496 1-1.04 1.2-.406 1.606.81 3.704.52 5.168-.208 1.044-1.492 1.204-2.434 1.4-.03.6.04 1.064.106 1.554-.216.794-1.184 1.248-2.1 1.36-3.016.36-7.596.526-10.5-.52-.81-1.986-1.448-4.4-2.12-6.67-2.83.3-5.12-1.2-7.276-2.2-.748-.346-1.8-.54-2.06-1.132-.27-.576-.16-1.68-.226-2.72-.17-2.66-.32-5.23-1-7.956-.316-1.224-.866-2.3-1.25-3.48-.354-1.092-.974-2.44-1.136-3.532-.24-1.614 1.28-1.704 2.252-2.404 1.5-1.08 2.68-1.68 4.31-2.656.48-.29 1.936-1 2.1-1.36.328-.668-.564-1.61-.8-2.134a6 6 0 0 1-.628-2.35c-1.366-.216-2.4-1.028-3.026-1.944-1.034-1.516-1.752-4.32-.856-6.454.07-.168.4-.5.472-.756.1-.508-.192-1.184-.21-1.724-.094-2.774.47-5.16 2.336-6 .76-3 3.47-4 6.026-5.524.956-.56 2.008-.92 3.096-1.32 3.9-1.436 9.888-1.166 13.126 1.284 1.372 1.04 3.568 3.23 4.352 4.8 2.074 4.19 1.926 11.194.476 16.292-.194.684-.48 1.69-.872 2.512-.276.574-1.13 1.72-1.026 2.23.106.524 1.95 1.924 2.346 2.306.712.686 2.064 1.6 2.174 2.464.12.92-.406 2.184-.672 3.074l-2.76 8.36"
        fill="#fff" />
    </g>
  </symbol>
</svg>