<svg xmlns="http://www.w3.org/2000/svg" xmlns:xlink="http://www.w3.org/1999/xlink" viewBox="0 0 66 37" fill="#fff" fill-rule="evenodd" stroke="#000" stroke-linecap="round" stroke-linejoin="round"><use xlink:href="#H" x="3.125" y="3.125"/><defs><linearGradient id="A" x1="91.90%" y1="40.22%" x2="28.49%" y2="81.63%"><stop offset="18%" stop-color="#0052cc"/><stop offset="100%" stop-color="#2684ff"/></linearGradient><linearGradient id="I" x1="8.70%" y1="59.17%" x2="72.26%" y2="17.99%"><stop offset="18%" stop-color="#0052cc"/><stop offset="100%" stop-color="#2684ff"/></linearGradient></defs><symbol id="H" overflow="visible"><g stroke="none" fill-rule="nonzero"><path d="M14.365 17.81c-4.705 1.147-7.9 3.4-7.9 6 0 1.617 1.235 3.088 3.264 4.235-.618-.97-.94-2.03-.94-3.088.03-2.676 2.117-5.176 5.587-7.146zm49.64 10.145c0-1.706-1.06-3.264-2.823-4.558.147.53.265 1.06.265 1.588 0 4.852-6.793 9.028-16.44 10.763a31.34 31.34 0 0 0 3.382.176c8.616-.029 15.616-3.587 15.616-7.969zm-5.558-2.647c0-1.794-1.53-3.44-4.146-4.793.618.735.94 1.53.94 2.353 0 4.323-9.175 7.822-20.526 7.822-11.322 0-20.526-3.5-20.526-7.822a3.09 3.09 0 0 1 .44-1.588c-1.823 1.206-2.853 2.588-2.853 4.058 0 4.676 10.44 8.47 23.32 8.47s23.35-3.852 23.35-8.5zm-10.175-.245c-4.764 3.058-19.4 4.235-25.702.294-4.94-3.088-3.235-8-17.38-18.762-1.853-1.412.353-2.9 1.735-1.94s.118 1.206 2.9 4c5.646 5.646 5.587.56 6.47 2.5 1.882 4.03 6 8.087 6 8.087 4.146 2.705 7.44 3.294 13.557-.853 3.882-2.617 2.294 4.176 11.792-.735 3.47-1.794 3.323-.588 6.852-5.5 1.47-2.03 4.264 1.56 1.088 2.06-1.265.206-3.4 1.588-4.323 3.764-1.323 3.264-.765 5.676-3 7.087zm-26.407-8.282c-1.176-.53-2.4-2.53-2.882-3.323 1.323-1.294.794-3.44.03-4.617-.735-1.176-1.647-.853-2.617-1.94-1-1.088.382-3.9 1.647-1.735 4.735 8.146 7.852 4.764 11.704 4.264 3.705-.47 7 1.56 8-4.176.176-.94 1.088-1.147 1.176.382.088 1.56.676 5.323 2.705 5.793 2.03.5 3.676-.47 4.146-1s.735-.47.94.882c.206 1.323.735 3.176 3.588 1.117 5.852-4.176 4.176-5.793 6.47-6.88 1.294-.618 3.352 1.382.382 2.882-4.235 2.147-4.676 4.793-7.352 6.47-4.5 2.823-3.117.118-10.35-.912-2.794-.382-3.676 2.705-5.852 1.823-4.97-2.06-8.47-1.647-11.734.97zM37.539 1.695c.176 1.235.382 1.206.823 1.294.44.118 1-.588 1-1.235.03-.676-.294-1.088-.94-1.06-.676.03-.912.353-.882 1zm21.76 2.206c.53.5 1.94.176 2.264-.206.853-.94.882-1.5.44-2.147-.44-.618-1.353-.53-2.264.147s-.735 1.94-.44 2.206zm-.382 6.234c-.44.588-.47 1.03-.147 1.353.353.353 1.06.647 1.56.265.5-.412.5-1 .088-1.5-.44-.53-1.03-.53-1.5-.118zm-44.64-7.352c.676.206 1 .853 1.56.118.294-.353.323-.853-.06-1.382-.235-.323-1.353-.56-1.823-.088s-.03 1.235.323 1.353zM.485 2.371c1.235.765 2.03 1.9 2.97.882.323-.353.706-.97.03-2.206C2.985.135 1.368-.218.809.135.219.459-.495 1.783.485 2.371zm11.38 5.852c.382.412 1.06.382 1.47.147.382-.235.323-.853-.06-1.382-.235-.323-.94-.5-1.412 0s-.265.94 0 1.235z" fill="#41bf47"/></g></symbol></svg>