<svg width="43" height="38" viewBox="0 0 43 38" fill="none" xmlns="http://www.w3.org/2000/svg">
<path d="M8.83975 35.5827C9.81008 37.2583 11.5409 38.0584 13.2375 37.9829C13.3743 37.9942 13.5132 38 13.6542 38H29.9276C30.1604 38 30.3878 37.9842 30.609 37.9539C32.0323 37.7862 33.3914 36.9957 34.2097 35.5827L42.3464 21.5317C42.9853 20.4285 43.1296 19.2304 42.8929 18.1333C42.8038 17.5709 42.6096 17.0082 42.2969 16.4683L34.1602 2.4173C33.1899 0.741678 31.4591 -0.0584042 29.7625 0.0170563C29.6257 0.00577305 29.4868 -1.14066e-08 29.3458 0L13.0724 1.31697e-06C12.8397 1.33581e-06 12.6124 0.0157463 12.3912 0.0460521C10.9678 0.213758 9.60859 1.00417 8.79027 2.4173L0.653583 16.4683C0.0147306 17.5715 -0.129622 18.7696 0.107115 19.8667C0.196184 20.4291 0.3904 20.9918 0.703058 21.5317L8.83975 35.5827Z" fill="#021850"/>
<path d="M16.5901 17.7219L12.9504 14.1743L14.2334 12.9238L16.5901 15.212L22.5865 9.36728L23.8695 10.6267L16.5901 17.7219Z" fill="white"/>
<path d="M29.2021 25.7685L27.8774 27.0893L24.5044 23.7264L21.1314 27.0893L19.8067 25.7685L23.1796 22.4056L19.8067 19.0427L21.1314 17.722L24.5044 21.0848L27.8774 17.722L29.2021 19.0427L25.8292 22.4056L29.2021 25.7685Z" fill="white"/>
<path d="M12.077 16.599C12.077 17.3087 11.961 17.8454 11.7289 18.2089C11.4968 18.5724 11.1219 18.8321 10.6042 18.9879C11.1219 19.1437 11.4968 19.4033 11.7289 19.7669C11.961 20.1304 12.077 20.667 12.077 21.3768V27.0634C12.077 28.4136 12.7375 29.0887 14.0586 29.0887H14.728V31.1401H13.5498C12.2109 31.1401 11.2022 30.8112 10.5239 30.1534C9.84549 29.5129 9.5063 28.5608 9.5063 27.2971V21.3248C9.5063 20.4593 9.10462 20.0265 8.30128 20.0265H7.36404V17.9492H8.30128C9.10462 17.9492 9.5063 17.5165 9.5063 16.6509V10.6787C9.5063 9.41498 9.84549 8.46288 10.5239 7.82238C11.2022 7.16457 12.2109 6.83566 13.5498 6.83566H14.728V8.887H14.0586C12.7375 8.887 12.077 9.56212 12.077 10.9124V16.599Z" fill="#22EAB5"/>
<path d="M35.8043 17.9492V20.0265H34.922C34.1608 20.0265 33.7802 20.4593 33.7802 21.3248V27.2971C33.7802 28.5608 33.4429 29.5129 32.7682 30.1534C32.1109 30.8112 31.1334 31.1401 29.836 31.1401H28.6942V29.0887H29.317C30.6317 29.0887 31.2891 28.4136 31.2891 27.0634V21.3768C31.2891 20.6497 31.3929 20.1131 31.6005 19.7669C31.8254 19.4033 32.1887 19.1437 32.6904 18.9879C32.1887 18.8321 31.8254 18.5811 31.6005 18.2348C31.3929 17.8713 31.2891 17.326 31.2891 16.599V10.9124C31.2891 9.56212 30.6317 8.887 29.317 8.887H28.6942V6.83566H29.836C31.1334 6.83566 32.1109 7.16457 32.7682 7.82238C33.4429 8.46288 33.7802 9.41498 33.7802 10.6787V16.6509C33.7802 17.5165 34.1608 17.9492 34.922 17.9492H35.8043Z" fill="#22EAB5"/>
</svg>
