<svg xmlns="http://www.w3.org/2000/svg" width="48" height="48" viewBox="0 0 48 48">
  <g id="Groupe_8543" data-name="Groupe 8543" transform="translate(-175 -416)">
    <g id="Groupe_8539" data-name="Groupe 8539" transform="translate(181.368 421.906)">
      <path id="Tracé_13721" data-name="Tracé 13721" d="M1517.7,85.649h-2.085a30.708,30.708,0,0,0-30.886-30.454V53.11A32.8,32.8,0,0,1,1517.7,85.649Z" transform="translate(-1484.73 -49.568)" fill="#4e9bcd"/>
      <path id="Tracé_13722" data-name="Tracé 13722" d="M1640.182,48.363a31.387,31.387,0,0,0-21.742-22.4l.474-1.671a33.153,33.153,0,0,1,22.954,23.671Z" transform="translate(-1605.768 -23.479)" fill="#4e9bcd"/>
      <path id="Tracé_13723" data-name="Tracé 13723" d="M1746.584,30.729a31.965,31.965,0,0,0-12.374-13.811l.722-1.188a33.371,33.371,0,0,1,12.917,14.419Z" transform="translate(-1710.567 -15.73)" fill="#4e9bcd"/>
    </g>
  </g>
</svg>